<svg width="96" height="96" xmlns="http://www.w3.org/2000/svg" xmlns:xlink="http://www.w3.org/1999/xlink" xml:space="preserve" overflow="hidden"><g transform="translate(-592 -312)"><path d="M620.882 342.3C621.516 342.308 622.24 342.307 623.015 342.3 623.183 351.129 630.478 358.151 639.307 357.982 647.945 357.817 654.89 350.821 654.991 342.182 655.282 341.196 657.134 334.461 654.909 330.202 653.477 327.198 650.392 325.336 647.066 325.469 645.431 324.175 638.576 319.553 628.937 324.104 621.037 327.831 620.808 336.004 620.818 337.231L619.918 341.076C619.792 341.614 620.126 342.152 620.664 342.278 620.734 342.294 620.807 342.303 620.88 342.304ZM639 356C631.367 355.989 625.147 349.87 625.012 342.238 628.751 342.083 633.162 341.598 635.937 340.287 639.568 338.573 644.157 334.712 645.601 333.458 646.987 334.097 648.214 335.035 649.194 336.206 650.013 337.207 650.721 338.293 651.308 339.445 651.776 340.28 652.308 341.224 652.986 342.271 652.834 349.889 646.62 355.989 639 356ZM622.794 337.558C622.814 337.472 622.823 337.383 622.82 337.295 622.81 336.969 622.638 329.283 629.791 325.906 632.116 324.757 634.669 324.142 637.262 324.106 640.473 324.064 643.594 325.17 646.062 327.225 646.289 327.44 646.604 327.537 646.913 327.487 649.548 327.25 652.044 328.707 653.133 331.118 654.381 333.507 654.021 337.085 653.583 339.407 653.395 339.079 653.219 338.765 653.05 338.464 652.398 337.19 651.61 335.99 650.7 334.886 649.382 333.243 647.618 332.014 645.62 331.347 645.301 331.27 644.965 331.355 644.72 331.574 644.664 331.624 639.101 336.584 635.088 338.474 631.831 340.011 625.652 340.274 622.157 340.296Z" fill="#72D0D9"/><path d="M668.533 371.525C663.943 367.991 658.685 365.424 653.075 363.979 651.783 363.592 650.482 363.258 649.209 362.986L648.702 362.877 648.321 363.23C644.246 367 641.484 367 640 367 638.516 367 635.731 367 631.676 363.28L631.297 362.932 630.797 363.038C629.572 363.296 628.278 363.611 626.94 363.976 621.398 365.6 616.17 368.15 611.479 371.518 609.328 373.203 608.05 375.768 608 378.5L608 394 610 394 610 378.5C610.044 376.391 611.03 374.413 612.688 373.108 617.178 369.894 622.177 367.46 627.476 365.908 628.586 365.608 629.676 365.336 630.711 365.108 634.6 368.527 637.584 369 640 369 642.416 369 645.384 368.521 649.29 365.051 650.351 365.291 651.43 365.574 652.513 365.899 657.868 367.272 662.889 369.715 667.275 373.08 668.952 374.385 669.953 376.375 670 378.5L670 394 672 394 672 378.5C671.952 375.772 670.678 373.211 668.533 371.525Z" fill="#72D0D9"/></g></svg>